<mxfile host="Electron" agent="Mozilla/5.0 (Windows NT 10.0; Win64; x64) AppleWebKit/537.36 (KHTML, like Gecko) draw.io/28.1.2 Chrome/138.0.7204.243 Electron/37.4.0 Safari/537.36" version="28.1.2">
  <diagram name="Page-1" id="-Wg4jpzrq00SH0v-1K6R">
    <mxGraphModel dx="2858" dy="1648" grid="1" gridSize="10" guides="1" tooltips="1" connect="1" arrows="1" fold="1" page="1" pageScale="1" pageWidth="850" pageHeight="1100" math="0" shadow="0">
      <root>
        <mxCell id="0" />
        <mxCell id="1" parent="0" />
        <mxCell id="yLwln4IDHJKUXo6dYSCl-1" value="&lt;font style=&quot;font-size: 48px;&quot;&gt;&lt;b style=&quot;&quot;&gt;High Level Architecture&lt;/b&gt;&lt;/font&gt;" style="text;strokeColor=none;align=center;fillColor=none;html=1;verticalAlign=middle;whiteSpace=wrap;rounded=0;" parent="1" vertex="1">
          <mxGeometry x="30" y="30" width="590" height="60" as="geometry" />
        </mxCell>
        <mxCell id="yLwln4IDHJKUXo6dYSCl-2" value="" style="rounded=0;whiteSpace=wrap;html=1;" parent="1" vertex="1">
          <mxGeometry x="40" y="180" width="210" height="490" as="geometry" />
        </mxCell>
        <mxCell id="yLwln4IDHJKUXo6dYSCl-3" value="&lt;font style=&quot;font-size: 24px;&quot;&gt;Sources&lt;/font&gt;" style="rounded=0;whiteSpace=wrap;html=1;strokeColor=none;" parent="1" vertex="1">
          <mxGeometry x="50" y="160" width="120" height="30" as="geometry" />
        </mxCell>
        <mxCell id="yLwln4IDHJKUXo6dYSCl-4" value="" style="rounded=0;whiteSpace=wrap;html=1;" parent="1" vertex="1">
          <mxGeometry x="350" y="180" width="740" height="490" as="geometry" />
        </mxCell>
        <mxCell id="yLwln4IDHJKUXo6dYSCl-5" value="&lt;font style=&quot;font-size: 24px;&quot;&gt;Data Warehouse&lt;/font&gt;" style="rounded=0;whiteSpace=wrap;html=1;strokeColor=none;" parent="1" vertex="1">
          <mxGeometry x="625" y="160" width="190" height="30" as="geometry" />
        </mxCell>
        <mxCell id="yLwln4IDHJKUXo6dYSCl-8" value="" style="rounded=0;whiteSpace=wrap;html=1;" parent="1" vertex="1">
          <mxGeometry x="1190" y="180" width="195" height="490" as="geometry" />
        </mxCell>
        <mxCell id="yLwln4IDHJKUXo6dYSCl-9" value="&lt;font style=&quot;font-size: 24px;&quot;&gt;Consume&lt;/font&gt;" style="rounded=0;whiteSpace=wrap;html=1;strokeColor=none;" parent="1" vertex="1">
          <mxGeometry x="1227.5" y="160" width="120" height="30" as="geometry" />
        </mxCell>
        <mxCell id="yLwln4IDHJKUXo6dYSCl-11" value="" style="rounded=0;whiteSpace=wrap;html=1;fillColor=none;strokeColor=#b46504;" parent="1" vertex="1">
          <mxGeometry x="372.5" y="230" width="190" height="430" as="geometry" />
        </mxCell>
        <mxCell id="yLwln4IDHJKUXo6dYSCl-13" value="" style="rounded=0;whiteSpace=wrap;html=1;fillColor=none;strokeColor=#23445d;" parent="1" vertex="1">
          <mxGeometry x="625" y="230" width="190" height="430" as="geometry" />
        </mxCell>
        <mxCell id="yLwln4IDHJKUXo6dYSCl-15" value="" style="rounded=0;whiteSpace=wrap;html=1;fillColor=none;strokeColor=#d79b00;gradientColor=#ffa500;" parent="1" vertex="1">
          <mxGeometry x="880" y="230" width="190" height="430" as="geometry" />
        </mxCell>
        <mxCell id="yLwln4IDHJKUXo6dYSCl-16" value="CRM" style="image;aspect=fixed;html=1;points=[];align=center;fontSize=12;image=img/lib/azure2/general/Folder_Blank.svg;" parent="1" vertex="1">
          <mxGeometry x="89.39" y="220" width="69" height="56.00000000000001" as="geometry" />
        </mxCell>
        <mxCell id="yLwln4IDHJKUXo6dYSCl-17" value="" style="image;aspect=fixed;html=1;points=[];align=center;fontSize=12;image=img/lib/azure2/general/File.svg;" parent="1" vertex="1">
          <mxGeometry x="139.39" y="240" width="32.46" height="40" as="geometry" />
        </mxCell>
        <mxCell id="yLwln4IDHJKUXo6dYSCl-20" value="ERP" style="image;aspect=fixed;html=1;points=[];align=center;fontSize=12;image=img/lib/azure2/general/Folder_Blank.svg;" parent="1" vertex="1">
          <mxGeometry x="88.16" y="340" width="69" height="56.00000000000001" as="geometry" />
        </mxCell>
        <mxCell id="yLwln4IDHJKUXo6dYSCl-21" value="" style="image;aspect=fixed;html=1;points=[];align=center;fontSize=12;image=img/lib/azure2/general/File.svg;" parent="1" vertex="1">
          <mxGeometry x="138.16" y="360" width="32.46" height="40" as="geometry" />
        </mxCell>
        <mxCell id="yLwln4IDHJKUXo6dYSCl-23" value="" style="verticalLabelPosition=bottom;shadow=0;dashed=0;align=center;html=1;verticalAlign=top;strokeWidth=1;shape=mxgraph.mockup.markup.line;strokeColor=#999999;" parent="1" vertex="1">
          <mxGeometry x="60" y="440" width="140" height="20" as="geometry" />
        </mxCell>
        <mxCell id="yLwln4IDHJKUXo6dYSCl-24" value="Object Type: CSV Files&lt;br&gt;&lt;br&gt;&lt;div&gt;Interface: Files in Folder&lt;/div&gt;" style="text;strokeColor=none;align=left;fillColor=none;html=1;verticalAlign=middle;whiteSpace=wrap;rounded=0;" parent="1" vertex="1">
          <mxGeometry x="65" y="465" width="185" height="70" as="geometry" />
        </mxCell>
        <mxCell id="yLwln4IDHJKUXo6dYSCl-25" value="" style="html=1;verticalLabelPosition=bottom;align=center;labelBackgroundColor=#ffffff;verticalAlign=top;strokeWidth=2;strokeColor=#36393d;shadow=0;dashed=0;shape=mxgraph.ios7.icons.data;fillColor=#ffcc99;" parent="1" vertex="1">
          <mxGeometry x="455.5" y="260" width="24" height="29.099999999999998" as="geometry" />
        </mxCell>
        <mxCell id="yLwln4IDHJKUXo6dYSCl-26" value="" style="html=1;verticalLabelPosition=bottom;align=center;labelBackgroundColor=#ffffff;verticalAlign=top;strokeWidth=2;strokeColor=#36393d;shadow=0;dashed=0;shape=mxgraph.ios7.icons.data;fillColor=#cce5ff;" parent="1" vertex="1">
          <mxGeometry x="708" y="260" width="24" height="29.099999999999998" as="geometry" />
        </mxCell>
        <mxCell id="yLwln4IDHJKUXo6dYSCl-27" value="" style="html=1;verticalLabelPosition=bottom;align=center;labelBackgroundColor=#ffffff;verticalAlign=top;strokeWidth=2;strokeColor=#d79b00;shadow=0;dashed=0;shape=mxgraph.ios7.icons.data;fillColor=#ffcd28;gradientColor=#ffa500;" parent="1" vertex="1">
          <mxGeometry x="963" y="260" width="24" height="29.099999999999998" as="geometry" />
        </mxCell>
        <mxCell id="yLwln4IDHJKUXo6dYSCl-29" value="" style="shape=singleArrow;whiteSpace=wrap;html=1;" parent="1" vertex="1">
          <mxGeometry x="1090" y="254" width="100" height="60" as="geometry" />
        </mxCell>
        <mxCell id="yLwln4IDHJKUXo6dYSCl-30" value="" style="shape=singleArrow;whiteSpace=wrap;html=1;" parent="1" vertex="1">
          <mxGeometry x="250" y="260" width="100" height="60" as="geometry" />
        </mxCell>
        <mxCell id="yLwln4IDHJKUXo6dYSCl-31" value="&lt;font style=&quot;font-size: 18px;&quot;&gt;Raw Data&lt;/font&gt;" style="text;html=1;align=center;verticalAlign=middle;whiteSpace=wrap;rounded=0;" parent="1" vertex="1">
          <mxGeometry x="417.5" y="305" width="100" height="30" as="geometry" />
        </mxCell>
        <mxCell id="yLwln4IDHJKUXo6dYSCl-32" value="&lt;font style=&quot;font-size: 18px;&quot;&gt;Cleaned, Standarized Data&lt;/font&gt;" style="text;html=1;align=center;verticalAlign=middle;whiteSpace=wrap;rounded=0;" parent="1" vertex="1">
          <mxGeometry x="640" y="305" width="160" height="30" as="geometry" />
        </mxCell>
        <mxCell id="yLwln4IDHJKUXo6dYSCl-33" value="&lt;font style=&quot;font-size: 18px;&quot;&gt;Business-Ready Data&lt;/font&gt;" style="text;html=1;align=center;verticalAlign=middle;whiteSpace=wrap;rounded=0;" parent="1" vertex="1">
          <mxGeometry x="895" y="305" width="160" height="35" as="geometry" />
        </mxCell>
        <mxCell id="yLwln4IDHJKUXo6dYSCl-34" value="&lt;div&gt;Object Type: Tables&lt;/div&gt;&lt;div&gt;&lt;br&gt;&lt;/div&gt;Load:&lt;div&gt;&lt;ul&gt;&lt;li&gt;Batch Processing&lt;/li&gt;&lt;li&gt;Full Load&lt;/li&gt;&lt;li&gt;Trunc &amp;amp; Insert&lt;br&gt;&lt;/li&gt;&lt;/ul&gt;&lt;div&gt;No Transformations&lt;div&gt;&lt;br&gt;&lt;/div&gt;&lt;div&gt;Data Model: None (as-is)&lt;/div&gt;&lt;/div&gt;&lt;/div&gt;" style="text;html=1;align=left;verticalAlign=middle;whiteSpace=wrap;rounded=0;" parent="1" vertex="1">
          <mxGeometry x="382.5" y="380" width="160.5" height="170" as="geometry" />
        </mxCell>
        <mxCell id="yLwln4IDHJKUXo6dYSCl-38" value="&lt;div&gt;Object Type: Tables&lt;/div&gt;&lt;div&gt;&lt;br&gt;&lt;/div&gt;Load:&lt;div&gt;&lt;ul&gt;&lt;li&gt;Batch Processing&lt;/li&gt;&lt;li&gt;Full Load&lt;/li&gt;&lt;li&gt;Trunc &amp;amp; Insert&lt;br&gt;&lt;/li&gt;&lt;/ul&gt;&lt;div&gt;Transformations:&lt;/div&gt;&lt;/div&gt;&lt;div&gt;&lt;ul&gt;&lt;li&gt;Data Cleansing&lt;/li&gt;&lt;li&gt;Data Standardization&lt;/li&gt;&lt;li&gt;Data Normalization&lt;/li&gt;&lt;li&gt;Derived Columns&lt;/li&gt;&lt;li&gt;Data Enrichment&lt;/li&gt;&lt;/ul&gt;&lt;div&gt;Data Model: None (as-is)&lt;/div&gt;&lt;/div&gt;" style="text;html=1;align=left;verticalAlign=middle;whiteSpace=wrap;rounded=0;" parent="1" vertex="1">
          <mxGeometry x="639.5" y="390" width="160.5" height="240" as="geometry" />
        </mxCell>
        <mxCell id="yLwln4IDHJKUXo6dYSCl-39" value="" style="verticalLabelPosition=bottom;shadow=0;dashed=0;align=center;html=1;verticalAlign=top;strokeWidth=1;shape=mxgraph.mockup.markup.line;strokeColor=#999999;" parent="1" vertex="1">
          <mxGeometry x="397.5" y="340" width="140" height="20" as="geometry" />
        </mxCell>
        <mxCell id="yLwln4IDHJKUXo6dYSCl-40" value="" style="verticalLabelPosition=bottom;shadow=0;dashed=0;align=center;html=1;verticalAlign=top;strokeWidth=1;shape=mxgraph.mockup.markup.line;strokeColor=#999999;" parent="1" vertex="1">
          <mxGeometry x="650" y="358" width="140" height="20" as="geometry" />
        </mxCell>
        <mxCell id="yLwln4IDHJKUXo6dYSCl-41" value="" style="verticalLabelPosition=bottom;shadow=0;dashed=0;align=center;html=1;verticalAlign=top;strokeWidth=1;shape=mxgraph.mockup.markup.line;strokeColor=#999999;" parent="1" vertex="1">
          <mxGeometry x="905" y="358" width="140" height="20" as="geometry" />
        </mxCell>
        <mxCell id="yLwln4IDHJKUXo6dYSCl-12" value="Silver Layer" style="rounded=0;whiteSpace=wrap;html=1;fillColor=#bac8d3;strokeColor=#23445d;fontStyle=1" parent="1" vertex="1">
          <mxGeometry x="662.5" y="215" width="115" height="20" as="geometry" />
        </mxCell>
        <mxCell id="yLwln4IDHJKUXo6dYSCl-10" value="Bronze Layer" style="rounded=0;whiteSpace=wrap;html=1;fillColor=#fad7ac;strokeColor=#b46504;fontStyle=1" parent="1" vertex="1">
          <mxGeometry x="410" y="215" width="115" height="20" as="geometry" />
        </mxCell>
        <mxCell id="yLwln4IDHJKUXo6dYSCl-14" value="Gold Layer" style="rounded=0;whiteSpace=wrap;html=1;fillColor=#ffcd28;strokeColor=#d79b00;fontStyle=1;gradientColor=#ffa500;" parent="1" vertex="1">
          <mxGeometry x="920" y="215" width="115" height="20" as="geometry" />
        </mxCell>
        <mxCell id="yLwln4IDHJKUXo6dYSCl-42" value="&lt;div&gt;Object Type: Views&lt;/div&gt;&lt;div&gt;&lt;br&gt;&lt;/div&gt;No Load&lt;div&gt;&lt;br&gt;&lt;/div&gt;&lt;div&gt;&lt;div&gt;&lt;div&gt;Transformations:&lt;/div&gt;&lt;/div&gt;&lt;div&gt;&lt;ul&gt;&lt;li&gt;Data Integrations&lt;/li&gt;&lt;li&gt;Aggregations&lt;/li&gt;&lt;li&gt;Business Logics&lt;/li&gt;&lt;/ul&gt;&lt;div&gt;Data Model:&amp;nbsp;&lt;/div&gt;&lt;/div&gt;&lt;/div&gt;&lt;div&gt;&lt;ul&gt;&lt;li&gt;Star Schema&lt;/li&gt;&lt;li&gt;Flat Tsble&lt;/li&gt;&lt;li&gt;Aggregated Table&lt;/li&gt;&lt;/ul&gt;&lt;/div&gt;" style="text;html=1;align=left;verticalAlign=middle;whiteSpace=wrap;rounded=0;" parent="1" vertex="1">
          <mxGeometry x="894.5" y="390" width="160.5" height="240" as="geometry" />
        </mxCell>
        <mxCell id="yLwln4IDHJKUXo6dYSCl-43" value="" style="shape=singleArrow;whiteSpace=wrap;html=1;" parent="1" vertex="1">
          <mxGeometry x="562.5" y="260" width="66.67" height="40" as="geometry" />
        </mxCell>
        <mxCell id="yLwln4IDHJKUXo6dYSCl-44" value="" style="shape=singleArrow;whiteSpace=wrap;html=1;" parent="1" vertex="1">
          <mxGeometry x="815" y="260" width="66.67" height="40" as="geometry" />
        </mxCell>
        <mxCell id="yLwln4IDHJKUXo6dYSCl-45" value="BI Reporting" style="image;aspect=fixed;html=1;points=[];align=center;fontSize=12;image=img/lib/azure2/analytics/Power_BI_Embedded.svg;" parent="1" vertex="1">
          <mxGeometry x="1262" y="246" width="51" height="68" as="geometry" />
        </mxCell>
        <mxCell id="YKIkPbp4UtoIMHGwWNY1-1" value="Ad-Hoc&lt;div&gt;SQL Queries&lt;/div&gt;" style="shadow=0;dashed=0;html=1;strokeColor=none;fillColor=#4495D1;labelPosition=center;verticalLabelPosition=bottom;verticalAlign=top;align=center;outlineConnect=0;shape=mxgraph.veeam.magnifying_glass;pointerEvents=1;" vertex="1" parent="1">
          <mxGeometry x="1259.8999999999999" y="385.6" width="55.2" height="54.4" as="geometry" />
        </mxCell>
        <mxCell id="YKIkPbp4UtoIMHGwWNY1-2" value="&lt;font&gt;Machine Learning&lt;/font&gt;" style="sketch=0;points=[[0,0,0],[0.25,0,0],[0.5,0,0],[0.75,0,0],[1,0,0],[0,1,0],[0.25,1,0],[0.5,1,0],[0.75,1,0],[1,1,0],[0,0.25,0],[0,0.5,0],[0,0.75,0],[1,0.25,0],[1,0.5,0],[1,0.75,0]];outlineConnect=0;fontColor=#FFFFFF;fillColor=#01A88D;strokeColor=#ffffff;dashed=0;verticalLabelPosition=bottom;verticalAlign=top;align=center;html=1;fontSize=12;fontStyle=0;aspect=fixed;shape=mxgraph.aws4.resourceIcon;resIcon=mxgraph.aws4.machine_learning;" vertex="1" parent="1">
          <mxGeometry x="1248.5" y="520" width="78" height="78" as="geometry" />
        </mxCell>
        <mxCell id="YKIkPbp4UtoIMHGwWNY1-3" value="" style="image;aspect=fixed;html=1;points=[];align=center;fontSize=12;image=img/lib/azure2/databases/SQL_Database.svg;" vertex="1" parent="1">
          <mxGeometry x="362" y="130" width="48" height="64" as="geometry" />
        </mxCell>
        <mxCell id="YKIkPbp4UtoIMHGwWNY1-4" value="&lt;font style=&quot;font-size: 16px;&quot;&gt;&lt;i&gt;SQL Server&lt;/i&gt;&lt;/font&gt;" style="text;html=1;align=center;verticalAlign=middle;whiteSpace=wrap;rounded=0;" vertex="1" parent="1">
          <mxGeometry x="410" y="153" width="100" height="30" as="geometry" />
        </mxCell>
      </root>
    </mxGraphModel>
  </diagram>
</mxfile>
